<?xml version="1.0" encoding="UTF-8" standalone="no"?>
<!-- Created with Inkscape (http://www.inkscape.org/) -->

<svg
   xmlns:osb="http://www.openswatchbook.org/uri/2009/osb"
   xmlns:dc="http://purl.org/dc/elements/1.1/"
   xmlns:cc="http://creativecommons.org/ns#"
   xmlns:rdf="http://www.w3.org/1999/02/22-rdf-syntax-ns#"
   xmlns:svg="http://www.w3.org/2000/svg"
   xmlns="http://www.w3.org/2000/svg"
   xmlns:sodipodi="http://sodipodi.sourceforge.net/DTD/sodipodi-0.dtd"
   xmlns:inkscape="http://www.inkscape.org/namespaces/inkscape"
   width="200"
   height="200"
   id="svg2"
   version="1.1"
   inkscape:version="0.48.2 r9819"
   sodipodi:docname="levels-v2.svg"
   inkscape:export-filename="/Users/stevesan84/reflect_git/svg/levels.png"
   inkscape:export-xdpi="200.07483"
   inkscape:export-ydpi="200.07483">
  <defs
     id="defs4">
    <marker
       inkscape:stockid="Arrow1Mend"
       orient="auto"
       refY="0.0"
       refX="0.0"
       id="Arrow1Mend"
       style="overflow:visible;">
      <path
         id="path4535"
         d="M 0.0,0.0 L 5.0,-5.0 L -12.5,0.0 L 5.0,5.0 L 0.0,0.0 z "
         style="fill-rule:evenodd;stroke:#000000;stroke-width:1.0pt;marker-start:none;"
         transform="scale(0.4) rotate(180) translate(10,0)" />
    </marker>
    <marker
       inkscape:stockid="Arrow1Lend"
       orient="auto"
       refY="0.0"
       refX="0.0"
       id="Arrow1Lend"
       style="overflow:visible;">
      <path
         id="path4529"
         d="M 0.0,0.0 L 5.0,-5.0 L -12.5,0.0 L 5.0,5.0 L 0.0,0.0 z "
         style="fill-rule:evenodd;stroke:#000000;stroke-width:1.0pt;marker-start:none;"
         transform="scale(0.8) rotate(180) translate(12.5,0)" />
    </marker>
    <linearGradient
       id="linearGradient5568"
       osb:paint="solid">
      <stop
         style="stop-color:#00c6ff;stop-opacity:1;"
         offset="0"
         id="stop5570" />
    </linearGradient>
    <linearGradient
       id="linearGradient4006"
       osb:paint="solid">
      <stop
         style="stop-color:#000000;stop-opacity:1;"
         offset="0"
         id="stop4008" />
    </linearGradient>
    <marker
       inkscape:stockid="Arrow1Mend"
       orient="auto"
       refY="0"
       refX="0"
       id="Arrow1Mend-1"
       style="overflow:visible">
      <path
         inkscape:connector-curvature="0"
         id="path4535-7"
         d="M 0,0 5,-5 -12.5,0 5,5 0,0 z"
         style="fill-rule:evenodd;stroke:#000000;stroke-width:1pt;marker-start:none"
         transform="matrix(-0.4,0,0,-0.4,-4,0)" />
    </marker>
    <marker
       inkscape:stockid="Arrow1Mend"
       orient="auto"
       refY="0"
       refX="0"
       id="Arrow1Mend-0"
       style="overflow:visible">
      <path
         inkscape:connector-curvature="0"
         id="path4535-9"
         d="M 0,0 5,-5 -12.5,0 5,5 0,0 z"
         style="fill-rule:evenodd;stroke:#000000;stroke-width:1pt;marker-start:none"
         transform="matrix(-0.4,0,0,-0.4,-4,0)" />
    </marker>
    <marker
       inkscape:stockid="Arrow1Mend"
       orient="auto"
       refY="0"
       refX="0"
       id="Arrow1Mend-8"
       style="overflow:visible">
      <path
         inkscape:connector-curvature="0"
         id="path4535-8"
         d="M 0,0 5,-5 -12.5,0 5,5 0,0 z"
         style="fill-rule:evenodd;stroke:#000000;stroke-width:1pt;marker-start:none"
         transform="matrix(-0.4,0,0,-0.4,-4,0)" />
    </marker>
    <marker
       inkscape:stockid="Arrow1Mend"
       orient="auto"
       refY="0"
       refX="0"
       id="Arrow1Mend-7"
       style="overflow:visible">
      <path
         inkscape:connector-curvature="0"
         id="path4535-1"
         d="M 0,0 5,-5 -12.5,0 5,5 0,0 z"
         style="fill-rule:evenodd;stroke:#000000;stroke-width:1pt;marker-start:none"
         transform="matrix(-0.4,0,0,-0.4,-4,0)" />
    </marker>
    <marker
       inkscape:stockid="Arrow1Mend"
       orient="auto"
       refY="0"
       refX="0"
       id="Arrow1Mend-17"
       style="overflow:visible">
      <path
         inkscape:connector-curvature="0"
         id="path4535-4"
         d="M 0,0 5,-5 -12.5,0 5,5 0,0 z"
         style="fill-rule:evenodd;stroke:#000000;stroke-width:1pt;marker-start:none"
         transform="matrix(-0.4,0,0,-0.4,-4,0)" />
    </marker>
  </defs>
  <sodipodi:namedview
     id="base"
     pagecolor="#ffffff"
     bordercolor="#666666"
     borderopacity="1.0"
     inkscape:pageopacity="0.0"
     inkscape:pageshadow="2"
     inkscape:zoom="2.8284271"
     inkscape:cx="442.632"
     inkscape:cy="-165.42476"
     inkscape:document-units="px"
     inkscape:current-layer="layer2"
     showgrid="true"
     inkscape:window-width="1280"
     inkscape:window-height="752"
     inkscape:window-x="0"
     inkscape:window-y="0"
     inkscape:window-maximized="0"
     inkscape:snap-global="true"
     showguides="true"
     inkscape:guide-bbox="true">
    <inkscape:grid
       type="xygrid"
       id="grid4876"
       empspacing="4"
       visible="true"
       enabled="true"
       snapvisiblegridlinesonly="true"
       spacingx="5px"
       spacingy="5px" />
  </sodipodi:namedview>
  <metadata
     id="metadata7">
    <rdf:RDF>
      <cc:Work
         rdf:about="">
        <dc:format>image/svg+xml</dc:format>
        <dc:type
           rdf:resource="http://purl.org/dc/dcmitype/StillImage" />
        <dc:title></dc:title>
      </cc:Work>
    </rdf:RDF>
  </metadata>
  <g
     inkscape:label="level1"
     inkscape:groupmode="layer"
     id="layer1">
    <rect
       gameObjType="levelArea"
       y="200"
       x="120"
       height="99.999985"
       width="100"
       id="rect4480-1"
       style="fill:#000000;fill-opacity:1;stroke:none"
       maxReflections="0" />
    <rect
       maxReflections="0"
       gameObjType="levelArea"
       y="800"
       x="0"
       height="99.999977"
       width="99.999977"
       id="rect3310"
       style="fill:#000000;fill-opacity:1;stroke:none" />
    <rect
       style="fill:#000000;fill-opacity:1;stroke:none"
       id="rect3351"
       width="99.999977"
       height="99.999977"
       x="240"
       y="560"
       gameObjType="levelArea"
       maxReflections="0" />
    <rect
       gameObjType="levelArea"
       y="440"
       x="120"
       height="99.999977"
       width="100.00001"
       id="rect4451"
       style="fill:#000000;fill-opacity:1;stroke:none"
       maxReflections="0" />
    <rect
       gameObjType="levelArea"
       y="440"
       x="360"
       height="99.999977"
       width="100.00001"
       id="rect4327"
       style="fill:#000000;fill-opacity:1;stroke:none"
       maxReflections="0" />
    <rect
       style="fill:#000000;fill-opacity:1;stroke:none"
       id="rect5029"
       width="100"
       height="99.999985"
       x="0"
       y="440"
       gameObjType="levelArea"
       maxReflections="0" />
    <rect
       style="fill:#000000;fill-opacity:1;stroke:none"
       id="rect4638"
       width="100"
       height="99.999985"
       x="360"
       y="200"
       gameObjType="levelArea"
       maxReflections="0" />
    <rect
       style="fill:#000000;fill-opacity:1;stroke:none"
       id="area3"
       width="99.999977"
       height="99.999977"
       x="120"
       y="320"
       gameObjType="levelArea"
       maxReflections="0" />
    <rect
       gameObjType="levelArea"
       y="200"
       x="0"
       height="99.999985"
       width="100"
       id="rect4480"
       style="fill:#000000;fill-opacity:1;stroke:none"
       maxReflections="0" />
    <path
       style="fill:#ffffff;fill-opacity:1;stroke:none"
       d="m 40,470 20,0 0,20 -20,0 z"
       id="path5035"
       gameObjType="levelGeo"
       inkscape:connector-curvature="0" />
    <path
       style="fill:#ffffff;fill-opacity:1;stroke:none"
       d="m 0,215 100,0 0,35 -10,0 0,10 -10,0 0,10 -10,0 0,15 -20,0 0,-15 -10,0 0,15 -20,0 0,-15 -20,0 0,-20 80,0 0,-10 -80,0 z"
       id="path4482"
       gameObjType="levelGeo"
       inkscape:connector-curvature="0"
       sodipodi:nodetypes="ccccccccccccccccccccc" />
    <path
       style="fill:#ffffff;fill-opacity:1;stroke:none"
       d="m 150,350 40,0 0,40 -30,0 0,10 -10,0 z"
       id="rect3911"
       gameObjType="levelGeo"
       inkscape:connector-curvature="0"
       sodipodi:nodetypes="ccccccc" />
    <path
       sodipodi:nodetypes="ccccc"
       inkscape:connector-curvature="0"
       gameObjType="levelGeo"
       id="path4526"
       d="m 140,230 30,0 0,20 -30,0 z"
       style="fill:#ffffff;fill-opacity:1;stroke:none" />
    <path
       inkscape:connector-curvature="0"
       gameObjType="levelGeo"
       id="path4333"
       d="m 390,455 40,0 0,40 -40,0 z"
       style="fill:#ffffff;fill-opacity:1;stroke:none" />
    <path
       sodipodi:nodetypes="ccccccc"
       inkscape:connector-curvature="0"
       gameObjType="levelGeo"
       id="path4453"
       d="m 120,460 50,0 0,60 -40,0 0,-40 -10,0 z"
       style="fill:#ffffff;fill-opacity:1;stroke:none" />
    <path
       inkscape:connector-curvature="0"
       gameObjType="levelGeo"
       id="path4644"
       d="m 360,240 20,0 0,5 20,0 0,-5 10,0 0,10 -50,0 z"
       style="fill:#ffffff;fill-opacity:1;stroke:none"
       sodipodi:nodetypes="ccccccccc" />
    <path
       style="fill:#ffffff;fill-opacity:1;stroke:none"
       d="m 260,600 40,0 0,30 -40,0 z"
       id="path3353"
       gameObjType="levelGeo"
       inkscape:connector-curvature="0" />
    <path
       inkscape:connector-curvature="0"
       gameObjType="levelGeo"
       id="path3312"
       d="m 10,830 80,0 0,40 -80,0 z"
       style="fill:#ffffff;fill-opacity:1;stroke:none"
       sodipodi:nodetypes="ccccc" />
    <rect
       gameObjType="levelArea"
       y="560"
       x="120"
       height="99.999977"
       width="100.00001"
       id="rect3244"
       style="fill:#000000;fill-opacity:1;stroke:none"
       maxReflections="0" />
    <path
       inkscape:connector-curvature="0"
       gameObjType="levelGeo"
       id="path3248"
       d="m 160,600 40,0 0,20 -20,0 0,20 -20,0 z"
       style="fill:#ffffff;fill-opacity:1;stroke:none"
       sodipodi:nodetypes="ccccccc" />
    <rect
       width="10"
       y="610"
       x="190"
       height="10"
       id="rect3250"
       style="fill:#ffff00;fill-opacity:1;stroke:none;display:inline"
       gameObjType="goal" />
    <rect
       gameObjType="player"
       width="10"
       y="600"
       x="180"
       height="10"
       id="rect3252"
       style="fill:#00ff00;fill-opacity:1;stroke:none;display:inline" />
    <path
       style="fill:#ffffff;fill-opacity:1;stroke:none"
       d="m 160,580 10,0 0,10 -10,0 z"
       id="path3305"
       gameObjType="levelGeo"
       inkscape:connector-curvature="0" />
    <rect
       gameObjType="levelArea"
       y="560"
       x="0"
       height="99.999977"
       width="100.00001"
       id="rect3556"
       style="fill:#000000;fill-opacity:1;stroke:none"
       maxReflections="0" />
    <path
       sodipodi:nodetypes="ccccccc"
       style="fill:#ffffff;fill-opacity:1;stroke:none"
       d="m 20,580 50,0 0,20 -20,0 0,40 -30,0 z"
       id="path3568"
       gameObjType="levelGeo"
       inkscape:connector-curvature="0" />
    <rect
       width="10"
       y="620"
       x="20"
       height="10"
       id="rect3562"
       style="fill:#ffff00;fill-opacity:1;stroke:none;display:inline"
       gameObjType="goal" />
    <rect
       gameObjType="player"
       width="10"
       y="630"
       x="20"
       height="10"
       id="rect3564"
       style="fill:#00ff00;fill-opacity:1;stroke:none;display:inline" />
    <rect
       maxReflections="0"
       style="fill:#000000;fill-opacity:1;stroke:none"
       id="rect3260"
       width="100.00001"
       height="99.999977"
       x="240"
       y="200"
       gameObjType="levelArea" />
    <path
       inkscape:connector-curvature="0"
       gameObjType="levelGeo"
       id="path3262"
       d="m 310,230 30,0 0,20 -30,0 z"
       style="fill:#ffffff;fill-opacity:1;stroke:none"
       sodipodi:nodetypes="ccccc" />
    <path
       style="fill:#ffffff;fill-opacity:1;stroke:none"
       d="m 240,230 40,0 0,20 -40,0 z"
       id="path3264"
       gameObjType="levelGeo"
       inkscape:connector-curvature="0"
       sodipodi:nodetypes="ccccc" />
    <rect
       style="fill:#000000;fill-opacity:1;stroke:none"
       id="rect3358"
       width="99.999977"
       height="99.999977"
       x="240"
       y="320"
       gameObjType="levelArea"
       maxReflections="0" />
    <path
       sodipodi:nodetypes="ccccccccc"
       style="fill:#ffffff;fill-opacity:1;stroke:none"
       d="m 250,335 80,0 0,10 -60,0 0,10 60,0 0,50 -80,0 z"
       id="path3372"
       gameObjType="levelGeo"
       inkscape:connector-curvature="0" />
    <rect
       maxReflections="0"
       gameObjType="levelArea"
       y="320"
       x="360"
       height="99.999977"
       width="99.999977"
       id="rect3507"
       style="fill:#000000;fill-opacity:1;stroke:none" />
    <path
       inkscape:connector-curvature="0"
       gameObjType="levelGeo"
       id="path3509"
       d="m 370,350 80,0 0,50 -40,0 0,-40 -40,0 z"
       style="fill:#ffffff;fill-opacity:1;stroke:none"
       sodipodi:nodetypes="ccccccc" />
    <rect
       maxReflections="0"
       style="fill:#000000;fill-opacity:1;stroke:none"
       id="rect3368"
       width="120.00002"
       height="100"
       x="-20"
       y="680"
       gameObjType="levelArea" />
    <path
       sodipodi:nodetypes="ccccc"
       style="fill:#ffffff;fill-opacity:1;stroke:none"
       d="m 50,700 40,0 0,40 -40,0 z"
       id="path3370"
       gameObjType="levelGeo"
       inkscape:connector-curvature="0" />
    <rect
       gameObjType="goal"
       style="fill:#ffff00;fill-opacity:1;stroke:none;display:inline"
       id="rect3372"
       height="10"
       x="50"
       y="720"
       width="10" />
    <rect
       style="fill:#00ff00;fill-opacity:1;stroke:none;display:inline"
       id="rect3374"
       height="10"
       x="80"
       y="710"
       width="10"
       gameObjType="player" />
    <rect
       maxReflections="0"
       style="fill:#000000;fill-opacity:1;stroke:none"
       id="rect3736"
       width="100.00001"
       height="99.999977"
       x="480"
       y="440"
       gameObjType="levelArea" />
    <path
       style="fill:#ffffff;fill-opacity:1;stroke:none"
       d="m 500,450 10,0 0,10 10,0 0,10 10,0 0,10 40,0 0,40 -70,0 z"
       id="path3738"
       gameObjType="levelGeo"
       inkscape:connector-curvature="0"
       sodipodi:nodetypes="ccccccccccc" />
    <rect
       maxReflections="0"
       style="fill:#000000;fill-opacity:1;stroke:none"
       id="rect4034"
       width="100.00001"
       height="99.999977"
       x="0"
       y="320"
       gameObjType="levelArea" />
    <path
       style="fill:#ffffff;fill-opacity:1;stroke:none"
       d="m 20,340 40,0 0,60 -20,0 0,-40 -20,0 z"
       id="path4036"
       gameObjType="levelGeo"
       inkscape:connector-curvature="0"
       sodipodi:nodetypes="ccccccc" />
    <rect
       gameObjType="levelArea"
       y="680"
       x="360"
       height="99.999977"
       width="100.00001"
       id="rect3410"
       style="fill:#000000;fill-opacity:1;stroke:none"
       maxReflections="0" />
    <path
       inkscape:connector-curvature="0"
       gameObjType="levelGeo"
       id="path3412"
       d="m 370,700 20,0 0,10 10,0 0,-10 20,0 0,10 10,0 0,-10 20,0 0,60 -80,0 z"
       style="fill:#ffffff;fill-opacity:1;stroke:none"
       sodipodi:nodetypes="ccccccccccccc" />
    <rect
       width="10"
       y="750"
       x="440"
       height="10"
       id="rect3414"
       style="fill:#ffff00;fill-opacity:1;stroke:none;display:inline"
       gameObjType="goal" />
    <rect
       gameObjType="player"
       width="10"
       y="725"
       x="425"
       height="10"
       id="rect3416"
       style="fill:#00ff00;fill-opacity:1;stroke:none;display:inline" />
    <path
       sodipodi:nodetypes="ccccc"
       inkscape:connector-curvature="0"
       gameObjType="rockGeo"
       id="path3418"
       d="m 420,780 -20,0 0,-40 20,0 z"
       style="fill:#ae550b;fill-opacity:1;stroke:none" />
    <rect
       maxReflections="0"
       style="fill:#000000;fill-opacity:1;stroke:none"
       id="rect3365"
       width="100.00001"
       height="99.999977"
       x="240"
       y="680"
       gameObjType="levelArea" />
    <path
       sodipodi:nodetypes="ccccc"
       style="fill:#ffffff;fill-opacity:1;stroke:none"
       d="m 255,690 70,0 0,75 -70,0 z"
       id="path3367"
       gameObjType="levelGeo"
       inkscape:connector-curvature="0" />
    <rect
       gameObjType="goal"
       style="fill:#ffff00;fill-opacity:1;stroke:none;display:inline"
       id="rect3369"
       height="10"
       x="315"
       y="755"
       width="10" />
    <rect
       style="fill:#00ff00;fill-opacity:1;stroke:none;display:inline"
       id="rect3371"
       height="10"
       x="260"
       y="690"
       width="10"
       gameObjType="player" />
    <path
       style="fill:#ae550b;fill-opacity:1;stroke:none"
       d="m 285,715 -30,0 0,-25 5,0 0,20 25,0 z"
       id="path3373"
       gameObjType="rockGeo"
       inkscape:connector-curvature="0"
       sodipodi:nodetypes="ccccccc" />
    <path
       sodipodi:nodetypes="ccccccc"
       inkscape:connector-curvature="0"
       gameObjType="rockGeo"
       id="path3377"
       d="m 325,715 -30,0 0,-5 25,0 0,-20 5,0 z"
       style="fill:#ae550b;fill-opacity:1;stroke:none" />
    <rect
       maxReflections="0"
       style="fill:#000000;fill-opacity:1;stroke:none"
       id="rect3693"
       width="100.00001"
       height="99.999977"
       x="120"
       y="680"
       gameObjType="levelArea" />
    <path
       sodipodi:nodetypes="ccccccc"
       style="fill:#ffffff;fill-opacity:1;stroke:none"
       d="m 140,700 50,0 0,20 -30,0 0,30 -20,0 z"
       id="path3695"
       gameObjType="levelGeo"
       inkscape:connector-curvature="0" />
    <rect
       gameObjType="goal"
       style="fill:#ffff00;fill-opacity:1;stroke:none;display:inline"
       id="rect3697"
       height="10"
       x="155"
       y="700"
       width="10" />
    <rect
       style="fill:#00ff00;fill-opacity:1;stroke:none;display:inline"
       id="rect3699"
       height="10"
       x="150"
       y="720"
       width="10"
       gameObjType="player" />
    <path
       style="fill:#ae550b;fill-opacity:1;stroke:none"
       d="m 190,750 -10,0 0,-10 10,0 z"
       id="path3330"
       gameObjType="rockGeo"
       inkscape:connector-curvature="0"
       sodipodi:nodetypes="ccccc" />
    <path
       sodipodi:nodetypes="cccccccc"
       style="fill:#ffffff;fill-opacity:1;stroke:none"
       d="m 140,260 5,0 10,25 -5,0 -7.32322,-18.29549 L 135,285 l -5,0 z"
       id="path3314"
       gameObjType="levelGeo"
       inkscape:connector-curvature="0" />
    <path
       inkscape:connector-curvature="0"
       gameObjType="levelGeo"
       id="path3322"
       d="m 160,260 5,0 0,10 10,0 0,-10 5,0 0,25 -5,0 0,-10 -10,0 0,10 -5,0 z"
       style="fill:#ffffff;fill-opacity:1;stroke:none"
       sodipodi:nodetypes="ccccccccccccc" />
    <text
       xml:space="preserve"
       style="font-size:40px;font-style:normal;font-weight:normal;line-height:125%;letter-spacing:0px;word-spacing:0px;fill:#000000;fill-opacity:1;stroke:none;font-family:Sans"
       x="0"
       y="180"
       id="text3326"
       sodipodi:linespacing="125%"><tspan
         sodipodi:role="line"
         id="tspan3328"
         x="0"
         y="180"
         style="font-size:12px">Steve's notes: grid spacing should be 5.0, 5.0</tspan></text>
    <path
       sodipodi:nodetypes="ccccc"
       style="fill:#ffffff;fill-opacity:1;stroke:none"
       d="m 140.18551,272.84911 4.84597,0.0259 1.84378,4.71875 -8.62564,0.0312 z"
       id="path3331"
       gameObjType="levelGeo"
       inkscape:connector-curvature="0" />
    <path
       sodipodi:nodetypes="ccccccccccc"
       inkscape:connector-curvature="0"
       gameObjType="levelGeo"
       id="path3333"
       d="m 252.52513,260 5.06989,0 9.93011,12.875 0,-12.875 5,0 0,20 -5,0 -10,-12.6875 0,12.6875 -5,0 z"
       style="fill:#ffffff;fill-opacity:1;stroke:none" />
    <path
       sodipodi:nodetypes="ccccc"
       inkscape:connector-curvature="0"
       gameObjType="levelGeo"
       id="path3335"
       d="m 277.52513,260 5,0 0,20 -5,0 z"
       style="fill:#ffffff;fill-opacity:1;stroke:none" />
    <path
       style="fill:#ffffff;fill-opacity:1;stroke:none"
       d="m 287.52513,260 5.06989,0 9.93011,12.875 0,-12.875 5,0 0,20 -5,0 -10,-12.6875 0,12.6875 -5,0 z"
       id="path3339"
       gameObjType="levelGeo"
       inkscape:connector-curvature="0"
       sodipodi:nodetypes="ccccccccccc" />
    <path
       sodipodi:nodetypes="ccccccccccccc"
       style="fill:#ffffff;fill-opacity:1;stroke:none"
       d="m 185,260 5,0 0,10 10,0 0,-10 5,0 0,25 -5,0 0,-10 -10,0 0,10 -5,0 z"
       id="path3341"
       gameObjType="levelGeo"
       inkscape:connector-curvature="0" />
    <path
       inkscape:connector-curvature="0"
       gameObjType="levelGeo"
       id="path3325"
       d="m 270,580 10,0 0,10 -10,0 z"
       style="fill:#ffffff;fill-opacity:1;stroke:none" />
    <path
       sodipodi:nodetypes="ccccc"
       inkscape:connector-curvature="0"
       gameObjType="rockGeo"
       id="path3393"
       d="m 60,730 10,0 0,10 -10,0 z"
       style="fill:#ae550b;fill-opacity:1;stroke:none" />
    <path
       sodipodi:nodetypes="ccccccccc"
       style="fill:#ffffff;fill-opacity:1;stroke:none"
       d="m 413,242 13,0 0,13 -4,0 0,-8 -5,0 0,8 -4,0 z"
       id="path3397"
       gameObjType="levelGeo"
       inkscape:connector-curvature="0" />
    <path
       inkscape:connector-curvature="0"
       gameObjType="levelGeo"
       id="path3399"
       d="m 428,242 6,0 0,13 -6,0 z"
       style="fill:#ffffff;fill-opacity:1;stroke:none"
       sodipodi:nodetypes="ccccc" />
    <path
       sodipodi:nodetypes="cccccccccc"
       style="fill:#ffffff;fill-opacity:1;stroke:none"
       d="m 436,242 5,0 0,10 3,-2 1,-8 4,0 -2,10 -6,3 -5,0 z"
       id="path3401"
       gameObjType="levelGeo"
       inkscape:connector-curvature="0" />
    <path
       sodipodi:nodetypes="ccccccccc"
       style="fill:#ffffff;fill-opacity:1;stroke:none"
       d="m 450,242 9,0 0,5 -6,0 0,4 6,0 0,4 -9,0 z"
       id="path3407"
       gameObjType="levelGeo"
       inkscape:connector-curvature="0" />
    <rect
       style="fill:#000000;fill-opacity:1;stroke:none"
       id="rect3855"
       width="99.999977"
       height="99.999977"
       x="120"
       y="800"
       gameObjType="levelArea"
       maxReflections="999" />
    <path
       sodipodi:nodetypes="ccccc"
       style="fill:#ffffff;fill-opacity:1;stroke:none"
       d="m 120,860.00004 20,0 0,20 -20,0 z"
       id="path3857"
       gameObjType="levelGeo"
       inkscape:connector-curvature="0" />
    <path
       sodipodi:nodetypes="ccccc"
       inkscape:connector-curvature="0"
       gameObjType="rockGeo"
       id="path3947"
       d="m 160,880.00004 -20,0 0,-20 20,0 z"
       style="fill:#ae550b;fill-opacity:1;stroke:none" />
    <path
       style="fill:#ae550b;fill-opacity:1;stroke:none"
       d="m 210,879.99996 -30,0 0,-9.96386 10,-0.0361 0,-10 10,0 0,-10 10,0 z"
       id="path3949"
       gameObjType="rockGeo"
       inkscape:connector-curvature="0"
       sodipodi:nodetypes="ccccccccc" />
  </g>
  <g
     inkscape:groupmode="layer"
     id="layer2"
     inkscape:label="gameObjects"
     style="display:inline">
    <rect
       width="10"
       y="215"
       x="5"
       height="10"
       id="rect4486"
       style="fill:#ffff00;fill-opacity:1;stroke:none"
       gameObjType="goal" />
    <rect
       gameObjType="goal"
       style="fill:#ffff00;fill-opacity:1;stroke:none"
       id="rect4530"
       height="10"
       x="190"
       y="235"
       width="10" />
    <rect
       width="10"
       y="390"
       x="150"
       height="10"
       id="rect3846-0"
       style="fill:#ffff00;fill-opacity:1;stroke:none"
       gameObjType="goal" />
    <rect
       width="10"
       y="240"
       x="400"
       height="10"
       id="rect4642"
       style="fill:#ffff00;fill-opacity:1;stroke:none"
       gameObjType="goal" />
    <rect
       width="10"
       y="470"
       x="200"
       height="10"
       id="rect4457"
       style="fill:#ffff00;fill-opacity:1;stroke:none"
       gameObjType="goal" />
    <rect
       gameObjType="goal"
       style="fill:#ffff00;fill-opacity:1;stroke:none"
       id="rect4329"
       height="10"
       x="420"
       y="470"
       width="10" />
    <rect
       width="10"
       y="480"
       x="80"
       height="10"
       id="rect5031"
       style="fill:#ffff00;fill-opacity:1;stroke:none"
       gameObjType="goal" />
    <rect
       width="10"
       y="515"
       x="390"
       height="10"
       id="rect4335"
       style="fill:#00a3ff;fill-opacity:1;stroke:none"
       gameObjType="key" />
    <rect
       gameObjType="player"
       width="10"
       y="460"
       x="120"
       height="10"
       id="rect4455"
       style="fill:#00ff00;fill-opacity:1;stroke:none" />
    <rect
       gameObjType="player"
       width="10"
       y="460"
       x="395"
       height="10"
       id="rect4331"
       style="fill:#00ff00;fill-opacity:1;stroke:none" />
    <rect
       style="fill:#00ff00;fill-opacity:1;stroke:none"
       id="rect5033"
       height="10"
       x="45"
       y="470"
       width="10"
       gameObjType="player" />
    <rect
       style="fill:#00ff00;fill-opacity:1;stroke:none"
       id="rect4640"
       height="10"
       x="360"
       y="240"
       width="10"
       gameObjType="player" />
    <rect
       gameObjType="player"
       width="10"
       y="240"
       x="140"
       height="10"
       id="rect4528"
       style="fill:#00ff00;fill-opacity:1;stroke:none" />
    <rect
       style="fill:#00ff00;fill-opacity:1;stroke:none"
       id="rect4484"
       height="10"
       x="5"
       y="260"
       width="10"
       gameObjType="player" />
    <rect
       style="fill:#00ff00;fill-opacity:1;stroke:none"
       id="rect3844-3"
       height="10"
       x="165"
       y="365"
       width="10"
       gameObjType="player" />
    <rect
       width="10"
       y="620"
       x="260"
       height="10"
       id="rect3355"
       style="fill:#ffff00;fill-opacity:1;stroke:none"
       gameObjType="goal" />
    <rect
       style="fill:#00ff00;fill-opacity:1;stroke:none"
       id="rect3357"
       height="10"
       x="280"
       y="600"
       width="10"
       gameObjType="player" />
    <rect
       gameObjType="key"
       style="fill:#00a3ff;fill-opacity:1;stroke:none"
       id="rect3359"
       height="10"
       x="330"
       y="595"
       width="10" />
    <rect
       gameObjType="goal"
       style="fill:#ffff00;fill-opacity:1;stroke:none"
       id="rect3314"
       height="10"
       x="45"
       y="835"
       width="10" />
    <rect
       gameObjType="player"
       width="10"
       y="850"
       x="45"
       height="10"
       id="rect3316"
       style="fill:#00ff00;fill-opacity:1;stroke:none" />
    <rect
       gameObjType="key"
       style="fill:#00a3ff;fill-opacity:1;stroke:none"
       id="rect3318"
       height="10"
       x="175"
       y="355"
       width="10" />
    <rect
       gameObjType="ballKey"
       style="fill:#ff3b00;fill-opacity:1;stroke:none"
       id="rect3254"
       height="10"
       x="160"
       y="580"
       width="10" />
    <rect
       width="10"
       y="610"
       x="140"
       height="10"
       id="rect3535"
       style="fill:#00a3ff;fill-opacity:1;stroke:none"
       gameObjType="key" />
    <rect
       width="10"
       y="580"
       x="55"
       height="10"
       id="rect3570"
       style="fill:#ff3b00;fill-opacity:1;stroke:none"
       gameObjType="ballKey" />
    <rect
       width="10"
       y="230"
       x="310"
       height="10"
       id="rect3266"
       style="fill:#d9d987;fill-opacity:1;stroke:none"
       gameObjType="goal" />
    <rect
       style="fill:#00ff00;fill-opacity:1;stroke:none"
       id="rect3268"
       height="10"
       x="325"
       y="240"
       width="10"
       gameObjType="player" />
    <rect
       width="10"
       y="395"
       x="290"
       height="10"
       id="rect3362"
       style="fill:#ffff00;fill-opacity:1;stroke:none"
       gameObjType="goal" />
    <rect
       style="fill:#00ff00;fill-opacity:1;stroke:none"
       id="rect3364"
       height="10"
       x="300"
       y="335"
       width="10"
       gameObjType="player" />
    <rect
       gameObjType="key"
       style="fill:#00a3ff;fill-opacity:1;stroke:none"
       id="rect3366"
       height="10"
       x="290"
       y="365"
       width="10" />
    <rect
       gameObjType="goal"
       style="fill:#ffff00;fill-opacity:1;stroke:none"
       id="rect3511"
       height="10"
       x="410"
       y="390"
       width="10" />
    <rect
       gameObjType="player"
       width="10"
       y="350"
       x="370"
       height="10"
       id="rect3513"
       style="fill:#00ff00;fill-opacity:1;stroke:none" />
    <rect
       width="10"
       y="350"
       x="435"
       height="10"
       id="rect3515"
       style="fill:#00a3ff;fill-opacity:1;stroke:none"
       gameObjType="key" />
    <rect
       gameObjType="goal"
       style="fill:#ffff00;fill-opacity:1;stroke:none"
       id="rect3740"
       height="10"
       x="560"
       y="510"
       width="10" />
    <rect
       style="fill:#00ff00;fill-opacity:1;stroke:none"
       id="rect3742"
       height="10"
       x="530"
       y="485"
       width="10"
       gameObjType="player" />
    <rect
       gameObjType="key"
       style="fill:#00a3ff;fill-opacity:1;stroke:none"
       id="rect3756"
       height="10"
       x="500"
       y="450"
       width="10" />
    <rect
       gameObjType="goal"
       style="fill:#ffff00;fill-opacity:1;stroke:none"
       id="rect4038"
       height="10"
       x="85"
       y="350"
       width="10" />
    <rect
       style="fill:#00ff00;fill-opacity:1;stroke:none"
       id="rect4040"
       height="10"
       x="20"
       y="340"
       width="10"
       gameObjType="player" />
    <rect
       width="10"
       y="730"
       x="390"
       height="10"
       id="rect3420"
       style="fill:#ff3b00;fill-opacity:1;stroke:none"
       gameObjType="ballKey" />
    <rect
       gameObjType="ballKey"
       style="fill:#ff3b00;fill-opacity:1;stroke:none"
       id="rect3375"
       height="10"
       x="295"
       y="755"
       width="10" />
    <rect
       width="10"
       y="715"
       x="260"
       height="10"
       id="rect3379"
       style="fill:#00a3ff;fill-opacity:1;stroke:none"
       gameObjType="key" />
    <rect
       width="10"
       y="230"
       x="325"
       height="10"
       id="rect5579"
       style="fill:#ff8d00;fill-opacity:1;stroke:none;display:inline"
       gameObjType="mirror" />
    <rect
       width="10"
       y="470"
       x="120"
       height="10"
       id="rect5581"
       style="fill:#ff8d00;fill-opacity:1;stroke:none;display:inline"
       gameObjType="mirror" />
    <rect
       gameObjType="mirror"
       style="fill:#ff8d00;fill-opacity:1;stroke:none;display:inline"
       id="rect5583"
       height="10"
       x="150"
       y="460"
       width="10" />
    <rect
       width="10"
       y="380"
       x="165"
       height="10"
       id="rect5585"
       style="fill:#ff8d00;fill-opacity:1;stroke:none;display:inline"
       gameObjType="mirror" />
    <rect
       width="10"
       y="475"
       x="395"
       height="10"
       id="rect5589"
       style="fill:#ff8d00;fill-opacity:1;stroke:none;display:inline"
       gameObjType="mirror" />
    <rect
       gameObjType="mirror"
       style="fill:#ff8d00;fill-opacity:1;stroke:none;display:inline"
       id="rect5591"
       height="10"
       x="395"
       y="485"
       width="10" />
    <rect
       width="10"
       y="620"
       x="280"
       height="10"
       id="rect5593"
       style="fill:#ff8d00;fill-opacity:1;stroke:none;display:inline"
       gameObjType="mirror" />
    <rect
       gameObjType="mirror"
       style="fill:#ff8d00;fill-opacity:1;stroke:none;display:inline"
       id="rect5595"
       height="10"
       x="280"
       y="610"
       width="10" />
    <rect
       gameObjType="mirror"
       style="fill:#ff8d00;fill-opacity:1;stroke:none;display:inline"
       id="rect5597"
       height="10"
       x="280"
       y="335"
       width="10" />
    <rect
       width="10"
       y="740"
       x="425"
       height="10"
       id="rect5599"
       style="fill:#ff8d00;fill-opacity:1;stroke:none;display:inline"
       gameObjType="mirror" />
    <rect
       width="10"
       y="750"
       x="425"
       height="10"
       id="rect5603"
       style="fill:#ff8d00;fill-opacity:1;stroke:none;display:inline"
       gameObjType="mirror" />
    <rect
       gameObjType="mirror"
       style="fill:#ff8d00;fill-opacity:1;stroke:none;display:inline"
       id="rect5605"
       height="10"
       x="270"
       y="700"
       width="10" />
    <rect
       gameObjType="mirror"
       style="fill:#ff8d00;fill-opacity:1;stroke:none;display:inline"
       id="rect5607"
       height="10"
       x="260"
       y="700"
       width="10" />
    <rect
       width="10"
       y="730"
       x="80"
       height="10"
       id="rect5613"
       style="fill:#ff8d00;fill-opacity:1;stroke:none;display:inline"
       gameObjType="mirror" />
    <rect
       gameObjType="mirror"
       style="fill:#ff8d00;fill-opacity:1;stroke:none;display:inline"
       id="rect5615"
       height="10"
       x="80"
       y="720"
       width="10" />
    <rect
       gameObjType="mirror"
       style="fill:#ff8d00;fill-opacity:1;stroke:none;display:inline"
       id="rect5619"
       height="10"
       x="180"
       y="610"
       width="10" />
    <text
       sodipodi:linespacing="125%"
       id="text5641"
       y="410"
       x="25"
       style="font-size:40px;font-style:normal;font-weight:normal;line-height:125%;letter-spacing:0px;word-spacing:0px;fill:#000000;fill-opacity:1;stroke:none;font-family:Sans"
       xml:space="preserve"><tspan
         style="font-size:12px;fill:#ffffff;fill-opacity:1"
         y="410"
         x="25"
         id="tspan5643"
         sodipodi:role="line">Knievel</tspan></text>
    <text
       sodipodi:linespacing="125%"
       id="text5645"
       y="885"
       x="25"
       style="font-size:40px;font-style:normal;font-weight:normal;line-height:125%;letter-spacing:0px;word-spacing:0px;fill:#000000;fill-opacity:1;stroke:none;font-family:Sans"
       xml:space="preserve"><tspan
         style="font-size:12px;fill:#ffffff;fill-opacity:1"
         y="885"
         x="25"
         id="tspan5647"
         sodipodi:role="line">Pretentious</tspan></text>
    <text
       xml:space="preserve"
       style="font-size:40px;font-style:normal;font-weight:normal;line-height:125%;letter-spacing:0px;word-spacing:0px;fill:#000000;fill-opacity:1;stroke:none;font-family:Sans"
       x="15"
       y="525"
       id="text5649"
       sodipodi:linespacing="125%"><tspan
         sodipodi:role="line"
         id="tspan5651"
         x="15"
         y="525"
         style="font-size:12px;fill:#ffffff;fill-opacity:1">Terrible Twos</tspan></text>
    <text
       sodipodi:linespacing="125%"
       id="text5653"
       y="535"
       x="135"
       style="font-size:40px;font-style:normal;font-weight:normal;line-height:125%;letter-spacing:0px;word-spacing:0px;fill:#000000;fill-opacity:1;stroke:none;font-family:Sans"
       xml:space="preserve"><tspan
         style="font-size:12px;fill:#ffffff;fill-opacity:1"
         y="535"
         x="135"
         id="tspan5655"
         sodipodi:role="line">Wrap Up</tspan></text>
    <text
       xml:space="preserve"
       style="font-size:40px;font-style:normal;font-weight:normal;line-height:125%;letter-spacing:0px;word-spacing:0px;fill:#000000;fill-opacity:1;stroke:none;font-family:Sans"
       x="135"
       y="335"
       id="text5669"
       sodipodi:linespacing="125%"><tspan
         sodipodi:role="line"
         id="tspan5671"
         x="135"
         y="335"
         style="font-size:12px;fill:#ffffff;fill-opacity:1">Foothold</tspan></text>
    <text
       sodipodi:linespacing="125%"
       id="text5673"
       y="575"
       x="390"
       style="font-size:40px;font-style:normal;font-weight:normal;line-height:125%;letter-spacing:0px;word-spacing:0px;fill:#000000;fill-opacity:1;stroke:none;font-family:Sans"
       xml:space="preserve"><tspan
         style="font-size:12px;fill:#ffffff;fill-opacity:1"
         y="575"
         x="390"
         id="tspan5675"
         sodipodi:role="line" /></text>
    <rect
       gameObjType="mirror"
       style="fill:#ff8d00;fill-opacity:1;stroke:none;display:inline"
       id="rect3206"
       height="10"
       x="20"
       y="350"
       width="10" />
    <rect
       gameObjType="mirror"
       style="fill:#ff8d00;fill-opacity:1;stroke:none;display:inline"
       id="rect3208"
       height="10"
       x="20"
       y="480"
       width="10" />
    <rect
       width="10"
       y="480"
       x="45"
       height="10"
       id="rect3210"
       style="fill:#ff8d00;fill-opacity:1;stroke:none;display:inline"
       gameObjType="mirror" />
    <rect
       width="10"
       y="350"
       x="380"
       height="10"
       id="rect3583"
       style="fill:#ff8d00;fill-opacity:1;stroke:none;display:inline"
       gameObjType="mirror" />
    <rect
       gameObjType="mirror"
       style="fill:#ff8d00;fill-opacity:1;stroke:none;display:inline"
       id="rect3585"
       height="10"
       x="530"
       y="510"
       width="10" />
    <rect
       width="10"
       y="500"
       x="530"
       height="10"
       id="rect3587"
       style="fill:#ff8d00;fill-opacity:1;stroke:none;display:inline"
       gameObjType="mirror" />
    <rect
       gameObjType="mirror"
       style="fill:#ff8d00;fill-opacity:1;stroke:none;display:inline"
       id="rect3595"
       height="10"
       x="30"
       y="620"
       width="10" />
    <rect
       gameObjType="mirror"
       style="fill:#ff8d00;fill-opacity:1;stroke:none;display:inline"
       id="rect3597"
       height="10"
       x="45"
       y="860"
       width="10" />
    <rect
       gameObjType="mirror"
       style="fill:#ff8d00;fill-opacity:1;stroke:none;display:inline"
       id="rect3705"
       height="10"
       x="150"
       y="730"
       width="10" />
    <rect
       gameObjType="mirror"
       style="fill:#ff8d00;fill-opacity:1;stroke:none;display:inline"
       id="rect3709"
       height="10"
       x="150"
       y="740"
       width="10" />
    <rect
       width="10"
       y="740"
       x="170"
       height="10"
       id="rect3960"
       style="fill:#00a3ff;fill-opacity:1;stroke:none"
       gameObjType="key" />
    <rect
       maxReflections="0"
       gameObjType="levelArea"
       y="1060"
       x="0"
       height="99.999977"
       width="99.999977"
       id="rect3310-1"
       style="fill:#000000;fill-opacity:1;stroke:none" />
    <path
       inkscape:connector-curvature="0"
       gameObjType="levelGeo"
       id="path3312-7"
       d="m 15,1080 70,0 0,20 -20,0 0,40 -30,0 0,-40 -20,0 z"
       style="fill:#ffffff;fill-opacity:1;stroke:none"
       sodipodi:nodetypes="ccccccccc" />
    <rect
       gameObjType="goal"
       style="fill:#ffff00;fill-opacity:1;stroke:none;display:inline"
       id="rect3314-4"
       height="10"
       x="75"
       y="1090"
       width="10" />
    <rect
       gameObjType="player"
       width="10"
       y="1130"
       x="50"
       height="10"
       id="rect3316-0"
       style="fill:#00ff00;fill-opacity:1;stroke:none;display:inline" />
    <rect
       gameObjType="mirror"
       style="fill:#ff8d00;fill-opacity:1;stroke:none;display:inline"
       id="rect3654"
       height="10"
       x="-25"
       y="1090"
       width="10"
       transform="scale(-1,1)" />
    <path
       sodipodi:nodetypes="cc"
       gameObjType="conveyor"
       inkscape:connector-curvature="0"
       id="path3680"
       d="m 40,1135 0,-45"
       style="fill:none;stroke:#16a300;stroke-width:1px;stroke-linecap:butt;stroke-linejoin:miter;stroke-opacity:1;marker-start:none;marker-end:url(#Arrow1Mend);display:inline" />
    <rect
       style="fill:#000000;fill-opacity:1;stroke:none;display:inline"
       id="rect3988"
       width="109.99998"
       height="99.999977"
       x="120"
       y="1060"
       gameObjType="levelArea"
       maxReflections="0" />
    <path
       sodipodi:nodetypes="ccccc"
       style="fill:#ffffff;fill-opacity:1;stroke:none;display:inline"
       d="m 130,1080 90,0 0,60 -90,0 z"
       id="path3990"
       gameObjType="levelGeo"
       inkscape:connector-curvature="0" />
    <rect
       width="10"
       y="1130"
       x="135"
       height="10"
       id="rect3992"
       style="fill:#ffff00;fill-opacity:1;stroke:none;display:inline"
       gameObjType="goal" />
    <rect
       style="fill:#00ff00;fill-opacity:1;stroke:none;display:inline"
       id="rect3994"
       height="10"
       x="145"
       y="1130"
       width="10"
       gameObjType="player" />
    <rect
       gameObjType="mirror"
       style="fill:#ff8d00;fill-opacity:1;stroke:none;display:inline"
       id="rect3998"
       height="10"
       x="165"
       y="1130"
       width="10" />
    <rect
       width="10"
       y="1130"
       x="155"
       height="10"
       id="rect4004"
       style="fill:#ff8d00;fill-opacity:1;stroke:none;display:inline"
       gameObjType="mirror" />
    <rect
       width="10"
       y="1130"
       x="175"
       height="10"
       id="rect4443"
       style="fill:#ff8d00;fill-opacity:1;stroke:none;display:inline"
       gameObjType="mirror" />
    <path
       style="fill:#ae550b;fill-opacity:1;stroke:none"
       d="m 130,1105 0,-25 5,0 0,20 10,0 0,-5 15,0 0,10 z"
       id="path4580"
       gameObjType="rockGeo"
       inkscape:connector-curvature="0"
       sodipodi:nodetypes="ccccccccc" />
    <path
       sodipodi:nodetypes="ccccccccc"
       inkscape:connector-curvature="0"
       gameObjType="rockGeo"
       id="path4641"
       d="m 220,1105 -30,0 0,-10 15,0 0,5 9.74998,0 0.25002,-20 5,0 z"
       style="fill:#ae550b;fill-opacity:1;stroke:none" />
    <path
       sodipodi:nodetypes="cc"
       gameObjType="conveyor"
       inkscape:connector-curvature="0"
       id="path4833"
       d="m 200,1110 -50,0"
       style="fill:none;stroke:#16a300;stroke-width:1px;stroke-linecap:butt;stroke-linejoin:miter;stroke-opacity:1;marker-start:none;marker-end:url(#Arrow1Mend);display:inline" />
    <rect
       gameObjType="ballKey"
       style="fill:#ff3b00;fill-opacity:1;stroke:none"
       id="rect4913"
       height="10"
       x="145"
       y="1080"
       width="10" />
    <rect
       width="10"
       y="1080"
       x="195"
       height="10"
       id="rect4915"
       style="fill:#ff3b00;fill-opacity:1;stroke:none"
       gameObjType="ballKey" />
    <rect
       width="10"
       y="580"
       x="270"
       height="10"
       id="rect3323"
       style="fill:#ff3b00;fill-opacity:1;stroke:none"
       gameObjType="ballKey" />
    <rect
       gameObjType="ballKey"
       style="fill:#ff3b00;fill-opacity:1;stroke:none"
       id="rect3331"
       height="10"
       x="40"
       y="580"
       width="10" />
    <rect
       style="fill:#000000;fill-opacity:1;stroke:none;display:inline"
       id="rect3367"
       width="110"
       height="99.999977"
       x="240"
       y="1060"
       gameObjType="levelArea-EXCLUDED"
       maxReflections="0" />
    <path
       sodipodi:nodetypes="ccccc"
       style="fill:#ffffff;fill-opacity:1;stroke:none;display:inline"
       d="m 250,1070 90,0 0,60 -90,0 z"
       id="path3369"
       gameObjType="levelGeo"
       inkscape:connector-curvature="0" />
    <rect
       width="10"
       y="1090"
       x="320"
       height="10"
       id="rect3373"
       style="fill:#ffff00;fill-opacity:1;stroke:none;display:inline"
       gameObjType="goal" />
    <rect
       style="fill:#00ff00;fill-opacity:1;stroke:none;display:inline"
       id="rect3376"
       height="10"
       x="330"
       y="1090"
       width="10"
       gameObjType="player" />
    <rect
       width="10"
       y="1080"
       x="320"
       height="10"
       id="rect3378"
       style="fill:#ff8d00;fill-opacity:1;stroke:none;display:inline"
       gameObjType="mirror" />
    <path
       sodipodi:nodetypes="ccccc"
       inkscape:connector-curvature="0"
       gameObjType="rockGeo"
       id="path3380"
       d="m 340,1110 -30,0 0,-10 30,0 z"
       style="fill:#ae550b;fill-opacity:1;stroke:none" />
    <path
       sodipodi:nodetypes="cc"
       gameObjType="conveyor"
       inkscape:connector-curvature="0"
       id="path3382"
       d="m 305,1095 -40,0"
       style="fill:none;stroke:#16a300;stroke-width:0.89442724px;stroke-linecap:butt;stroke-linejoin:miter;stroke-opacity:1;marker-start:none;marker-end:url(#Arrow1Mend);display:inline" />
    <rect
       width="10"
       y="1080"
       x="290"
       height="10"
       id="rect3384"
       style="fill:#ff3b00;fill-opacity:1;stroke:none"
       gameObjType="ballKey" />
    <rect
       gameObjType="mirror"
       style="fill:#ff8d00;fill-opacity:1;stroke:none;display:inline"
       id="rect3386"
       height="10"
       x="310"
       y="1090"
       width="10" />
    <rect
       width="10"
       y="1080"
       x="310"
       height="10"
       id="rect3388"
       style="fill:#ff8d00;fill-opacity:1;stroke:none;display:inline"
       gameObjType="mirror" />
    <path
       sodipodi:nodetypes="ccccccc"
       inkscape:connector-curvature="0"
       gameObjType="rockGeo"
       id="path3390"
       d="m 280,1110 -20,0 0,-20 10,0 0,10 10,0 z"
       style="fill:#ae550b;fill-opacity:1;stroke:none" />
    <rect
       width="10"
       y="240"
       x="255"
       height="10"
       id="rect3332"
       style="fill:#00a3ff;fill-opacity:1;stroke:none"
       gameObjType="key" />
    <rect
       width="10"
       y="365"
       x="320"
       height="10"
       id="rect3334"
       style="fill:#00a3ff;fill-opacity:1;stroke:none"
       gameObjType="key" />
    <rect
       width="10"
       y="235"
       x="160"
       height="10"
       id="rect3387"
       style="fill:#ff8d00;fill-opacity:1;stroke:none;display:inline"
       gameObjType="mirror" />
    <rect
       gameObjType="mirror"
       style="fill:#ff8d00;fill-opacity:1;stroke:none;display:inline"
       id="rect3389"
       height="10"
       x="370"
       y="240"
       width="10" />
    <rect
       maxReflections="0"
       gameObjType="levelArea"
       y="440"
       x="240"
       height="99.999977"
       width="99.999977"
       id="rect3243"
       style="fill:#000000;fill-opacity:1;stroke:none" />
    <path
       inkscape:connector-curvature="0"
       gameObjType="levelGeo"
       id="path3245"
       d="m 260,465 60,0 0,15 -60,0 z"
       style="fill:#ffffff;fill-opacity:1;stroke:none" />
    <rect
       gameObjType="goal"
       style="fill:#ffff00;fill-opacity:1;stroke:none;display:inline"
       id="rect3247"
       height="10"
       x="285"
       y="510"
       width="10" />
    <rect
       gameObjType="player"
       width="10"
       y="470"
       x="270"
       height="10"
       id="rect3249"
       style="fill:#00ff00;fill-opacity:1;stroke:none;display:inline" />
    <rect
       width="10"
       y="455"
       x="285"
       height="10"
       id="rect3251"
       style="fill:#00a3ff;fill-opacity:1;stroke:none;display:inline"
       gameObjType="key" />
    <rect
       gameObjType="mirror"
       style="fill:#ff8d00;fill-opacity:1;stroke:none;display:inline"
       id="rect3253"
       height="10"
       x="300"
       y="470"
       width="10" />
    <rect
       width="10"
       y="470"
       x="285"
       height="10"
       id="rect3255"
       style="fill:#ff8d00;fill-opacity:1;stroke:none;display:inline"
       gameObjType="mirror" />
    <rect
       gameObjType="key"
       style="fill:#00a3ff;fill-opacity:1;stroke:none;display:inline"
       id="rect3229"
       height="10"
       x="260"
       y="480"
       width="10" />
    <rect
       width="10"
       y="825"
       x="145"
       height="10"
       id="rect3859"
       style="fill:#ffff00;fill-opacity:1;stroke:none"
       gameObjType="goal" />
    <rect
       gameObjType="goal"
       style="fill:#ffff00;fill-opacity:1;stroke:none"
       id="rect3873"
       height="10"
       x="200"
       y="830"
       width="10" />
    <rect
       gameObjType="goal"
       style="fill:#ffff00;fill-opacity:1;stroke:none"
       id="rect3877"
       height="10"
       x="125"
       y="850.00006"
       width="10" />
    <rect
       style="fill:#00ff00;fill-opacity:1;stroke:none"
       id="rect3973"
       height="10"
       x="125"
       y="870.00006"
       width="10"
       gameObjType="player" />
    <rect
       gameObjType="key"
       style="fill:#00a3ff;fill-opacity:1;stroke:none;display:inline"
       id="rect4096"
       height="10"
       x="-10"
       y="710"
       width="10" />
  </g>
</svg>
